Coordinates
version=1
nRows=5
nColumns=63
inDegrees=yes

Units are S.I. units (second, meters, Newtons, ...)
If the header above contains a line with 'inDegrees', this indicates whether rotational values are in degrees (yes) or radians (no).

endheader
time	pelvis_tilt	pelvis_list	pelvis_rotation	pelvis_tx	pelvis_ty	pelvis_tz	hip_flexion_r	hip_adduction_r	hip_rotation_r	knee_angle_r	knee_angle_r_beta	ankle_angle_r	subtalar_angle_r	mtp_angle_r	hip_flexion_l	hip_adduction_l	hip_rotation_l	knee_angle_l	knee_angle_l_beta	ankle_angle_l	subtalar_angle_l	mtp_angle_l	L5_S1_Flex_Ext	L5_S1_Lat_Bending	L5_S1_axial_rotation	L4_L5_Flex_Ext	L4_L5_Lat_Bending	L4_L5_axial_rotation	L3_L4_Flex_Ext	L3_L4_Lat_Bending	L3_L4_axial_rotation	L2_L3_Flex_Ext	L2_L3_Lat_Bending	L2_L3_axial_rotation	L1_L2_Flex_Ext	L1_L2_Lat_Bending	L1_L2_axial_rotation	L1_T12_Flex_Ext	L1_T12_Lat_Bending	L1_T12_axial_rotation	Abs_r3	Abs_r2	Abs_r1	Abs_t1	Abs_t2	neck_flexion	neck_bending	neck_rotation	arm_flex_r	arm_add_r	arm_rot_r	elbow_flex_r	pro_sup_r	wrist_flex_r	wrist_dev_r	arm_flex_l	arm_add_l	arm_rot_l	elbow_flex_l	pro_sup_l	wrist_flex_l	wrist_dev_l
      1.25000000	     -7.81475664	     15.05395736	    -87.87055641	     -0.07903780	      0.97766498	     -0.83633854	     37.67239922	     12.27952033	     -4.97777323	     14.30831680	      0.24972724	    -11.82200925	     -8.15068290	      0.00000000	     16.26251689	     -5.55511117	      1.36535437	     33.60158531	      0.58645830	     14.41932845	    -18.47248740	      0.00000000	     -0.19513082	     -2.22950918	      0.59062545	     -0.36237745	     -2.96524722	      0.62753954	     -0.32058043	     -5.42082863	      0.62753954	     -0.22301502	     -5.42082863	      0.51679727	     -0.18119848	     -4.54641513	      0.47988318	     -0.11149775	     -3.45350973	      0.44296909	     -1.39379997	    -25.22065380	      3.28488155	      0.00000000	      0.00000000	      0.00000000	      0.00000000	      0.00000000	     -2.74308875	    -30.01516906	    -39.26847998	    125.78112436	     78.68527750	      0.00000000	      4.99479167	     -6.78981026	    -46.12639891	    -13.58707920	     55.49357808	     67.44206545	      0.00000000	      4.99479167
      1.26666667	     -6.56094069	     14.52038213	    -87.88162519	     -0.07159013	      0.97363287	     -0.82770765	     36.99226364	     11.43238779	     -5.71822664	     16.33924823	      0.28517368	    -11.16046428	    -10.85273831	      0.00000000	     15.13438485	     -3.80793327	      0.97068308	     34.04697059	      0.59423174	     14.76631809	    -18.35945874	      0.00000000	     -0.17636899	     -2.07125716	      0.71367272	     -0.32753485	     -2.75477202	      0.75827726	     -0.28975662	     -5.03605466	      0.75827726	     -0.20157212	     -5.03605466	      0.62446363	     -0.16377625	     -4.22370760	      0.57985908	     -0.10077724	     -3.20837734	      0.53525454	     -1.25978607	    -23.43047524	      3.96923356	      0.00000000	      0.00000000	      0.00000000	      0.00000000	      0.00000000	     -3.65705594	    -31.04227783	    -39.67719708	    124.49622056	     78.77037331	      0.00000000	      4.99486241	     -7.68832399	    -44.73789959	    -13.85478866	     55.97134664	     67.47154308	      0.00000000	      4.99486241
      1.28333333	     -5.29846418	     14.30937413	    -87.81145458	     -0.06456705	      0.96913538	     -0.82037479	     37.07575239	     10.50323696	     -5.15374407	     18.81745139	      0.32842648	    -11.72056370	    -16.18797873	      0.00000000	     14.65362489	     -2.13172495	      0.45445508	     34.84550797	      0.60816884	     15.37861530	    -18.16072087	      0.00000000	     -0.15718466	     -1.92229824	      0.81207151	     -0.29190763	     -2.55665666	      0.86282598	     -0.25823868	     -4.67387595	      0.86282598	     -0.17964635	     -4.67387595	      0.71056257	     -0.14596167	     -3.91995058	      0.65980810	     -0.08981531	     -2.97763998	      0.60905363	     -1.12275430	    -21.74542219	      4.51649813	      0.00000000	      0.00000000	      0.00000000	      0.00000000	      0.00000000	     -4.80919310	    -31.96100778	    -40.72612530	    123.28084374	     79.27168218	      0.00000000	      4.99520902	     -9.26469878	    -43.19548538	    -16.71415593	     58.20870671	     67.69253694	      0.00000000	      4.99520902
      1.30000000	     -4.21593408	     14.14996733	    -87.42057295	     -0.05662960	      0.96534773	     -0.81339963	     37.77324410	      9.10010443	     -5.65186976	     22.17349423	      0.38700048	     -9.71569722	    -18.05385041	      0.00000000	     14.60329228	     -0.55669680	      0.31158839	     36.10555103	      0.63016074	     16.05251968	    -18.04911358	      0.00000000	     -0.13779581	     -1.73710055	      0.66403306	     -0.25590060	     -2.31034373	      0.70553512	     -0.22638474	     -4.22358627	      0.70553512	     -0.15748683	     -4.22358627	      0.58102893	     -0.12795719	     -3.54229543	      0.53952686	     -0.07873653	     -2.69076875	      0.49802479	     -0.98426170	    -19.65042880	      3.69315266	      0.00000000	      0.00000000	      0.00000000	      0.00000000	      0.00000000	     -4.20525397	    -33.43366954	    -39.62208726	    121.36027225	     80.14179470	      0.00000000	      4.99649625	    -12.51871041	    -41.59045566	    -21.54472608	     61.10278441	     69.21222334	      0.00000000	      4.99649625
      1.31666667	     -3.28941601	     14.09806197	    -86.94757024	     -0.04799220	      0.96295396	     -0.80486324	     38.74390225	      7.54541261	     -6.02355654	     25.77634489	      0.44988209	     -6.99409940	    -18.79434545	      0.00000000	     14.91302658	      0.86068187	      0.26325340	     37.80128371	      0.65975686	     16.75765990	    -17.83150985	      0.00000000	     -0.13677728	     -1.52726714	      0.77285477	     -0.25400908	     -2.03126529	      0.82115819	     -0.22471139	     -3.71339732	      0.82115819	     -0.15632275	     -3.71339732	      0.67624792	     -0.12701138	     -3.11440315	      0.62794450	     -0.07815454	     -2.36573680	      0.57964108	     -0.97698642	    -17.27675132	      4.29838636	      0.00000000	      0.00000000	      0.00000000	      0.00000000	      0.00000000	     -6.02154443	    -34.70968336	    -41.38897031	    120.52044696	     80.02748240	      0.00000000	      4.99673088	    -13.08934589	    -40.89993837	    -23.09861784	     63.13699268	     69.18482104	      0.00000000	      4.99673088
